<?xml version="1.0" standalone="no"?>
<!DOCTYPE svg PUBLIC "-//W3C//DTD SVG 20010904//EN"
 "http://www.w3.org/TR/2001/REC-SVG-20010904/DTD/svg10.dtd">
<svg version="1.0" xmlns="http://www.w3.org/2000/svg"
 width="150.000000pt" height="50.000000pt" viewBox="0 0 3418.000000 1301.000000"
 preserveAspectRatio="xMidYMid meet">

<g transform="translate(0.000000,1301.000000) scale(0.100000,-0.100000)"
fill="#000000" stroke="none">
<path d="M0 7743 l0 -5268 477 0 c466 0 625 -7 1003 -41 142 -12 523 -56 600
-69 14 -2 117 -18 230 -35 711 -109 1514 -288 2654 -594 175 -47 324 -86 329
-86 12 0 4 514 -17 1065 -16 432 -17 398 3 389 25 -11 134 -25 154 -20 15 4
22 -5 18 -27 -2 -10 13 -9 25 3 7 7 11 7 11 -2 1 -7 6 -150 12 -318 21 -617
38 -947 50 -969 6 -9 11 -1 18 25 6 22 47 183 92 359 46 176 131 505 191 730
60 226 161 617 224 870 167 664 247 970 321 1225 37 124 67 230 67 237 1 7 5
10 10 7 5 -3 6 -10 3 -15 -4 -5 14 -9 39 -9 25 0 46 -4 46 -9 0 -5 25 -15 55
-21 30 -6 57 -15 60 -20 3 -4 22 -11 42 -15 21 -4 33 -9 26 -12 -6 -2 -9 -16
-6 -34 2 -16 0 -29 -6 -29 -6 0 -8 -6 -6 -12 4 -12 -65 -290 -423 -1698 -151
-595 -242 -1008 -302 -1370 -30 -186 -66 -497 -59 -505 11 -11 694 -184 701
-177 4 4 48 113 98 242 271 699 351 867 531 1111 48 66 49 67 48 140 l0 74
-20 -70 c-29 -102 -39 -103 -40 -5 l-1 85 -16 -98 c-19 -120 -37 -130 -29 -14
5 86 3 79 -28 -88 -9 -49 -21 -94 -26 -100 -11 -11 -11 25 1 85 4 25 5 51 0
59 -5 10 -11 -6 -15 -44 -10 -81 -28 -109 -20 -32 7 73 -7 67 -29 -13 -20 -72
-31 -78 -22 -13 4 32 3 43 -4 33 -5 -8 -12 -40 -15 -70 -4 -30 -9 -64 -13 -75
-5 -18 -6 -18 -13 5 -4 14 -8 43 -9 65 -1 33 -3 36 -10 19 -5 -12 -12 -43 -17
-70 l-8 -49 -5 50 c-6 52 -14 47 -26 -20 -6 -36 -8 -38 -14 -15 -7 24 -7 24
-23 -13 -17 -38 -77 -118 -64 -85 4 10 10 26 14 35 3 10 -11 0 -31 -22 -22
-24 -33 -31 -26 -17 15 31 -4 28 -29 -4 -28 -35 -26 -26 6 43 37 79 37 81 14
54 -12 -13 -21 -20 -21 -17 0 11 32 69 51 95 21 26 25 46 8 35 -26 -16 17 45
75 105 33 35 53 61 43 58 -27 -10 -12 9 39 45 25 17 42 38 40 45 -6 16 65 78
126 109 48 24 200 72 251 79 21 3 26 1 19 -8 -5 -7 -8 -22 -6 -35 3 -16 0 -21
-8 -16 -6 4 -8 3 -5 -3 4 -6 -2 -41 -13 -79 -25 -85 -25 -93 -1 -69 12 12 21
40 24 74 3 29 9 56 12 59 3 4 3 -16 -1 -43 -6 -47 -5 -49 12 -35 11 9 15 10
10 2 -4 -6 -3 -12 2 -12 15 0 23 -28 10 -36 -7 -5 -8 -2 -3 6 5 8 4 11 -3 7
-5 -4 -8 -15 -5 -25 2 -11 -9 -32 -29 -54 -87 -94 -280 -451 -381 -708 -88
-221 -249 -639 -278 -720 -13 -36 -27 -66 -31 -68 -16 -7 -8 -24 10 -20 16 5
17 -20 10 -456 -4 -254 -10 -536 -13 -628 l-7 -168 13721 0 13721 0 0 6505 0
6505 -17090 0 -17090 0 0 -5267z m1824 3866 c31 -11 58 -24 60 -28 3 -4 -23
-27 -57 -50 -56 -39 -64 -42 -94 -33 -34 11 -91 -5 -203 -57 -25 -11 -46 -16
-48 -11 -4 11 34 87 65 129 53 69 169 91 277 50z m420 -21 c58 -135 71 -295
35 -437 -29 -114 -16 -120 72 -36 81 76 201 138 308 161 72 14 180 17 121 2
-14 -3 -59 -11 -100 -17 -99 -15 -233 -81 -317 -156 -57 -51 -63 -61 -63 -95
0 -38 -20 -70 -43 -70 -7 0 -18 -24 -25 -52 -15 -64 -72 -150 -115 -176 -30
-17 -32 -21 -29 -71 l4 -52 49 5 c27 3 67 9 88 12 34 5 41 3 54 -17 8 -13 21
-43 28 -67 11 -36 16 -43 34 -40 43 9 57 -43 34 -127 -23 -82 -89 -135 -168
-135 -115 0 -204 219 -158 390 9 30 14 56 13 58 -2 1 -28 -46 -58 -105 -51
-99 -58 -108 -84 -108 -45 0 -40 25 21 106 68 90 105 163 105 204 0 44 45 128
91 169 29 27 39 44 39 66 0 16 7 35 16 42 45 37 53 52 69 119 30 133 17 292
-34 412 -24 54 -24 57 -13 57 4 0 16 -19 26 -42z m14681 -343 c290 -83 308
-87 450 -82 91 4 152 11 203 26 40 12 77 19 83 16 5 -4 9 -1 9 4 0 6 10 11 23
11 20 -1 20 -2 4 -11 -15 -9 -16 -13 -5 -27 12 -15 11 -16 -4 -3 -17 12 -18 0
-20 -210 l-3 -224 -55 -2 c-30 -1 -212 -4 -405 -7 -349 -5 -457 -12 -675 -42
-185 -26 -284 -56 -477 -144 -471 -216 -664 -345 -735 -492 -41 -84 -56 -163
-73 -390 -9 -113 -19 -225 -24 -249 l-9 -44 -1 60 c-1 33 6 144 14 245 40 486
83 701 172 872 158 300 445 534 813 662 176 62 264 76 435 72 137 -3 161 -7
280 -41z m1415 -76 c164 -44 333 -144 590 -349 85 -69 177 -139 204 -157 65
-44 36 -44 -99 1 -103 35 -270 115 -510 247 -256 140 -420 199 -557 201 -43 0
-78 4 -78 8 0 4 30 20 67 35 119 48 238 52 383 14z m-15348 -271 c80 -80 100
-181 53 -274 -14 -28 -36 -61 -50 -74 l-25 -24 1 25 c1 25 -9 141 -14 172 -2
9 -18 32 -35 50 -29 30 -31 36 -22 67 6 19 10 54 10 78 0 40 1 42 21 32 11 -7
39 -30 61 -52z m-1261 -38 c5 0 9 -6 9 -13 0 -10 12 -11 58 -3 33 5 65 7 73 4
8 -3 29 -42 47 -87 l33 -81 40 20 c21 11 39 17 39 12 0 -10 -78 -84 -110 -104
-136 -82 -333 -76 -370 12 -21 50 -8 134 26 178 37 46 137 101 142 77 2 -8 8
-15 13 -15z m15587 -170 c19 -23 52 -19 52 7 0 13 27 14 198 8 108 -4 208 -8
222 -10 14 -3 88 -9 165 -15 172 -13 367 -44 460 -75 76 -25 334 -140 350
-157 15 -15 -213 1 -255 18 -19 8 -42 21 -51 29 -14 13 -18 13 -33 -4 -28 -31
-109 -45 -261 -45 -155 1 -215 13 -250 49 l-22 25 -23 -25 c-35 -37 -89 -48
-250 -49 -168 0 -228 12 -265 55 -22 28 -25 28 -37 11 -26 -37 -65 -52 -154
-61 -135 -14 -279 -5 -334 22 -25 12 -49 32 -54 43 -9 21 -10 21 -30 -10 -40
-59 -81 -70 -266 -71 -191 0 -247 14 -281 69 -11 17 -19 24 -19 15 0 -22 -41
-58 -78 -68 -17 -5 -73 -12 -124 -15 l-93 -6 115 57 c72 35 129 56 154 57 29
2 41 7 47 22 14 38 280 98 484 110 50 2 104 7 120 10 34 6 238 17 393 22 95 3
104 2 120 -18z m14676 -1245 c32 -8 67 -20 79 -27 l21 -11 -24 -16 c-14 -9
-42 -31 -62 -49 -36 -32 -39 -33 -74 -22 -32 11 -43 9 -102 -16 -37 -15 -70
-33 -74 -38 -4 -6 -8 -8 -8 -3 0 4 -14 0 -31 -8 -17 -9 -33 -14 -36 -11 -12
12 31 98 70 142 32 35 54 49 92 59 66 18 80 18 149 0z m484 -51 c53 -132 63
-303 24 -437 -27 -94 -11 -97 78 -14 111 102 282 176 409 177 55 0 47 -11 -11
-17 -124 -13 -244 -61 -346 -138 -75 -57 -106 -96 -108 -136 -2 -35 -20 -59
-45 -59 -14 0 -19 -7 -19 -28 0 -49 -57 -149 -111 -195 -56 -47 -90 -98 -138
-207 -37 -84 -46 -93 -73 -77 -29 18 -22 42 36 125 29 42 59 88 66 102 11 21
7 20 -26 -11 -88 -81 -178 -120 -284 -121 -114 -3 -170 44 -170 142 0 77 56
153 138 187 34 14 36 14 56 -11 19 -24 25 -25 71 -18 28 4 57 6 66 4 16 -3 69
-109 69 -137 0 -25 18 -26 62 -4 40 19 43 24 44 60 2 52 49 142 97 185 23 21
36 41 33 50 -9 23 15 62 44 72 41 15 64 105 65 252 0 120 -10 173 -51 268 -14
32 -19 52 -12 50 7 -3 23 -31 36 -64z m-16629 -31 c-78 -224 -150 -621 -180
-988 -15 -180 -15 -688 0 -875 61 -771 210 -1424 466 -2035 52 -123 -114 154
-215 360 -244 499 -393 1073 -441 1695 -13 171 -7 628 11 770 45 372 128 676
250 915 59 116 117 215 126 215 2 0 -6 -26 -17 -57z m3068 -97 c31 -55 60
-102 64 -104 4 -2 6 -9 3 -17 -3 -7 -1 -16 5 -20 7 -4 8 0 4 11 -5 13 -3 15 8
9 12 -7 12 -6 1 7 -9 11 -12 40 -10 87 2 69 3 71 19 50 81 -107 203 -422 254
-654 160 -725 82 -1623 -206 -2380 -51 -134 -69 -167 -69 -126 0 15 4 20 13
15 9 -6 9 -5 0 7 -13 16 -13 146 0 167 6 8 4 12 -5 10 -7 -2 -29 -48 -48 -103
-54 -150 -144 -355 -215 -491 -64 -123 -170 -300 -185 -309 -5 -3 13 48 39
112 178 437 313 969 385 1513 23 168 26 223 17 239 -11 17 -2 53 12 44 6 -4 7
-1 1 8 -14 21 -14 301 0 318 8 12 8 13 -2 7 -11 -7 -13 42 -11 272 2 155 0
284 -3 287 -4 4 -5 12 -2 18 2 7 6 37 8 67 2 30 5 60 6 65 2 6 0 18 -5 28 -4
10 -3 29 4 43 7 16 7 23 1 19 -7 -4 -9 7 -7 32 3 21 0 43 -5 50 -5 6 -5 14 0
17 30 18 -79 593 -152 806 l-16 45 20 -24 c11 -13 46 -69 77 -125z m-3446 -58
c5 -2 -8 -41 -29 -88 -22 -47 -52 -124 -68 -172 -15 -48 -31 -85 -36 -82 -4 3
-5 13 0 22 4 9 5 44 2 77 l-5 60 -42 -125 c-80 -241 -126 -506 -144 -830 -6
-113 -12 -206 -14 -208 -9 -10 -17 278 -12 433 9 296 55 499 164 722 52 106
54 114 53 185 -1 40 -2 76 -1 80 1 4 28 -10 62 -32 33 -21 65 -40 70 -42z
m3889 -14 c0 -78 3 -90 39 -162 126 -253 172 -482 170 -850 -1 -114 -5 -238
-9 -277 l-7 -70 -2 75 c-8 367 -66 741 -155 995 l-34 100 0 -50 c1 -137 0
-138 -36 -30 -19 55 -52 141 -74 192 l-40 91 29 12 c15 7 45 25 66 40 21 16
41 26 45 24 5 -3 8 -43 8 -90z m13865 -456 c91 -95 106 -168 57 -273 -24 -50
-60 -98 -63 -84 0 2 -2 17 -4 33 -19 148 -26 171 -59 206 -27 28 -32 40 -26
60 5 14 8 46 9 73 1 29 5 47 13 47 7 0 39 -28 73 -62z m-903 -333 c2 -2 41 3
88 11 83 13 85 13 103 -8 10 -12 23 -41 30 -65 11 -42 19 -48 58 -44 36 4 34
-112 -3 -179 -10 -19 -35 -46 -55 -59 -99 -64 -190 -21 -244 116 -18 47 -23
78 -23 158 0 62 5 111 14 130 l13 30 8 -44 c5 -24 10 -45 11 -46z m-30704
-1440 c25 -21 72 -105 72 -127 0 -7 -11 10 -24 38 -13 28 -43 71 -67 95 -42
41 -30 38 19 -6z m200 12 c-20 -17 -48 -50 -62 -71 -14 -21 -26 -34 -26 -29 0
16 55 88 85 111 43 34 45 26 3 -11z m29545 -64 c-92 -88 -149 -205 -126 -256
7 -15 7 -29 2 -40 -6 -10 -5 -33 2 -61 9 -36 8 -55 -6 -103 -13 -44 -15 -76
-10 -135 6 -74 5 -78 -14 -78 -19 0 -21 6 -21 73 -1 71 -1 71 -14 36 -31 -86
-108 -152 -173 -147 -30 2 -42 10 -60 37 -13 19 -23 43 -23 55 1 34 38 106 55
106 9 0 13 -4 10 -10 -11 -18 11 -11 30 10 29 32 53 34 88 8 53 -40 55 -40 70
-12 12 23 12 32 0 68 -11 31 -12 53 -5 91 7 33 7 54 0 62 -6 8 -6 19 1 32 17
31 13 62 -17 126 -34 70 -71 117 -126 156 -21 16 -33 29 -26 29 46 0 159 -143
181 -230 7 -27 18 -50 24 -50 6 0 19 27 29 60 22 72 80 157 138 199 23 17 44
31 47 31 2 0 -23 -26 -56 -57z m-29916 -23 c-6 -17 -19 -32 -28 -35 -10 -3
-29 -21 -44 -40 -14 -19 -30 -35 -36 -35 -15 0 -10 64 7 89 17 24 66 50 96 51
14 0 15 -4 5 -30z m590 0 c34 -21 47 -49 41 -96 l-3 -29 -20 33 c-11 18 -31
38 -46 44 -14 6 -31 24 -37 40 -9 25 -8 28 11 28 12 0 37 -9 54 -20z m-311
-151 c-1 -134 6 -151 47 -119 31 24 35 25 60 3 10 -10 26 -18 35 -18 43 0 35
-106 -9 -120 -31 -10 -87 24 -114 69 -24 40 -29 38 -25 -16 1 -20 -3 -28 -15
-28 -12 0 -15 9 -13 40 1 22 -1 43 -5 46 -4 4 -7 0 -7 -9 0 -9 -17 -34 -38
-57 -32 -32 -46 -40 -75 -40 -41 0 -57 19 -57 67 0 31 24 72 35 61 4 -4 21 2
37 12 30 18 31 18 57 -6 16 -15 29 -20 35 -14 5 5 9 47 8 92 -1 89 4 122 18
113 5 -3 12 6 16 20 3 14 7 25 9 25 1 0 2 -54 1 -121z m29949 71 c55 -27 77
-69 73 -138 l-3 -54 -35 54 c-24 37 -45 56 -66 62 -24 7 -37 21 -52 53 l-20
43 31 0 c17 0 49 -9 72 -20z m-863 -31 c-9 -24 -25 -44 -38 -49 -13 -5 -42
-37 -66 -70 l-43 -62 -3 66 c-2 49 1 72 15 92 19 30 85 63 125 64 l26 0 -16
-41z m586 -374 c23 -19 32 -22 41 -12 17 17 47 -22 56 -72 12 -74 -36 -129
-102 -116 -44 8 -120 76 -144 130 -25 55 -25 73 1 50 20 -18 21 -18 58 13 45
38 53 38 90 7z m-15933 -826 c152 -72 248 -271 262 -546 3 -68 10 -123 15
-123 17 0 113 53 204 111 50 33 96 59 102 59 6 0 20 16 32 35 12 20 25 35 29
33 3 -2 39 -37 79 -80 l73 -76 -27 -44 c-41 -64 -91 -170 -123 -256 -32 -87
-84 -296 -79 -318 2 -9 51 39 122 120 139 158 176 207 222 299 19 38 38 67 42
65 32 -14 142 -85 142 -91 0 -14 -70 -119 -139 -207 -36 -47 -112 -131 -169
-188 -57 -56 -98 -100 -90 -98 105 36 225 68 271 73 64 7 85 -5 107 -58 25
-58 -1 -88 -90 -104 -93 -17 -424 -131 -459 -159 -21 -16 -10 -316 13 -374 24
-55 68 -92 112 -92 77 0 207 75 307 178 45 46 49 54 58 122 61 437 527 733
784 498 32 -29 66 -73 82 -106 25 -51 28 -68 28 -159 0 -116 -10 -109 92 -71
73 27 156 85 257 179 48 44 91 77 96 74 5 -3 33 14 62 37 136 111 339 157 470
108 118 -44 180 -155 182 -322 0 -59 5 -98 11 -98 22 1 104 43 175 91 71 48
76 54 104 122 37 91 87 171 122 194 40 26 134 24 171 -3 39 -29 40 -62 3 -134
-43 -86 -85 -203 -119 -334 -52 -197 -52 -297 0 -348 55 -55 169 -29 273 63
44 39 46 43 46 97 1 235 195 529 425 643 163 80 345 80 361 -1 6 -29 8 -30 64
-30 77 0 102 -20 103 -81 0 -24 -21 -174 -47 -333 -56 -336 -56 -349 12 -354
65 -5 130 37 231 146 70 76 90 92 111 90 36 -4 70 -75 70 -145 0 -52 -1 -53
-77 -131 -164 -164 -306 -222 -447 -180 -55 17 -118 81 -135 138 l-13 45 -17
-25 c-74 -113 -175 -172 -315 -186 -95 -9 -165 14 -228 77 l-49 50 -60 -37
c-129 -78 -280 -104 -396 -68 -79 25 -162 106 -188 184 -20 61 -23 197 -6 285
5 27 9 51 8 52 -1 1 -42 -19 -92 -43 -49 -24 -105 -47 -123 -50 -29 -6 -36
-14 -62 -70 -53 -118 -157 -245 -250 -304 -136 -87 -314 -93 -403 -13 -10 10
-21 13 -26 7 -5 -5 -34 -145 -66 -312 -63 -337 -76 -392 -100 -428 -19 -29
-76 -66 -129 -84 -44 -14 -54 -7 -81 55 -21 49 -5 164 100 687 47 232 118 505
147 561 15 29 2 31 -31 8 -41 -29 -186 -97 -236 -110 -37 -10 -42 -15 -53 -58
-19 -72 -79 -187 -123 -237 -85 -97 -202 -146 -345 -146 -115 0 -180 25 -254
99 -31 31 -63 67 -72 81 l-15 24 -51 -45 c-191 -166 -431 -207 -580 -99 -78
56 -130 204 -139 391 l-6 116 -26 -13 c-36 -19 -54 -17 -84 6 -33 26 -45 82
-25 112 8 11 45 37 83 57 l70 36 16 105 c22 142 64 310 110 449 21 63 38 116
36 117 -1 1 -48 -20 -104 -48 -88 -43 -103 -54 -103 -74 0 -49 -53 -274 -95
-399 -99 -300 -256 -579 -429 -762 -135 -143 -307 -257 -464 -308 -194 -63
-453 -49 -605 32 -71 38 -166 135 -209 213 -171 313 -138 839 88 1377 23 57
38 100 31 96 -7 -4 -65 -42 -130 -84 -130 -86 -147 -94 -183 -85 -50 13 -60
108 -16 155 23 25 509 343 581 381 36 19 123 18 153 -2 48 -31 42 -55 -56
-251 -244 -483 -348 -993 -267 -1309 38 -146 90 -222 189 -270 64 -32 72 -33
177 -32 97 1 120 5 192 32 270 100 500 377 663 799 34 88 110 351 110 381 0 4
-42 15 -93 23 -116 20 -193 57 -273 132 -145 135 -209 302 -183 482 23 165
126 287 279 330 82 23 230 15 295 -16z m1785 -304 l0 -195 -50 -25 c-136 -69
-291 -73 -413 -11 -40 20 -88 49 -107 66 l-35 29 55 -21 c181 -70 342 16 486
257 31 52 58 95 60 95 2 0 4 -88 4 -195z m388 -68 c26 -26 76 -62 111 -80 79
-39 165 -42 251 -9 l55 21 -35 -31 c-19 -16 -69 -47 -110 -67 -73 -35 -79 -36
-185 -36 -90 1 -120 5 -165 23 -30 12 -60 26 -67 30 -11 7 -16 159 -13 346 0
25 7 17 56 -60 30 -49 76 -111 102 -137z m15076 88 c-9 -14 -18 -25 -21 -25
-5 0 5 18 20 38 17 22 18 13 1 -13z m-26194 -10 c0 -2 -6 -5 -13 -8 -8 -3 -14
1 -14 8 0 7 6 11 14 8 7 -3 13 -6 13 -8z m17 -27 c-3 -8 -6 -5 -6 6 -1 11 2
17 5 13 3 -3 4 -12 1 -19z m-22 2 c-3 -5 -14 -10 -23 -9 -14 0 -13 2 3 9 27
11 27 11 20 0z m26413 -7 c11 -10 23 -31 27 -47 6 -29 6 -29 -17 -12 -23 16
-34 22 -62 30 -8 3 -20 14 -26 25 -10 19 -8 21 24 21 18 0 43 -8 54 -17z
m-309 -70 c14 -23 33 -44 42 -46 15 -4 22 -25 36 -107 9 -56 23 -66 48 -34 19
23 24 25 43 15 12 -7 27 -9 33 -5 27 16 52 -69 27 -94 -27 -27 -95 -5 -134 44
-15 18 -15 18 -9 -6 10 -41 10 -45 0 -50 -5 -3 -12 6 -13 20 -5 36 -22 50 -22
18 0 -15 -12 -41 -26 -58 -51 -60 -119 -22 -100 55 4 15 10 25 13 21 4 -3 15
2 25 11 16 14 24 15 48 6 39 -15 45 -3 25 50 -9 24 -15 47 -14 53 1 5 -1 17
-6 27 -4 10 -5 20 -2 24 11 11 -22 61 -65 98 -41 36 -41 37 -9 19 19 -10 46
-38 60 -61z m64 57 c-3 -12 -8 -19 -11 -16 -5 6 5 36 12 36 2 0 2 -9 -1 -20z
m-25903 -22 c0 -5 -4 -7 -9 -3 -5 3 -12 1 -16 -5 -3 -5 -14 -10 -23 -9 -12 0
-10 3 6 10 13 5 21 13 17 19 -3 6 1 7 9 4 9 -3 16 -10 16 -16z m-140 2 c0 -5
-4 -10 -10 -10 -5 0 -10 5 -10 10 0 6 5 10 10 10 6 0 10 -4 10 -10z m26027
-57 c-3 -10 -5 -2 -5 17 0 19 2 27 5 18 2 -10 2 -26 0 -35z m-25927 -3 c0 -5
-2 -10 -4 -10 -3 0 -8 5 -11 10 -3 6 -1 10 4 10 6 0 11 -4 11 -10z m25690 -4
c0 -7 -9 -25 -20 -39 -12 -14 -26 -40 -32 -57 -12 -36 -23 -30 -33 17 -6 28
-2 37 23 63 32 32 62 39 62 16z m-13137 -200 c43 -18 67 -47 77 -92 11 -48 -5
-124 -32 -160 -71 -89 -274 -83 -313 10 -30 72 -15 154 37 203 53 50 162 69
231 39z m9312 -176 c-3 -5 -1 -10 4 -10 6 0 11 -8 11 -17 0 -16 -1 -16 -16 -1
-14 14 -13 38 2 38 3 0 2 -4 -1 -10z m400 -113 c30 -81 31 -87 6 -56 -10 13
-22 40 -25 59 -4 19 -10 44 -13 55 -11 41 7 7 32 -58z m-555 34 c0 -4 -5 -12
-11 -18 -7 -7 -2 -16 19 -29 47 -30 140 -102 148 -115 5 -9 -1 -10 -22 -5 -25
5 -17 -5 52 -71 75 -72 83 -82 93 -134 l12 -57 41 11 c37 9 39 11 23 24 -18
12 -18 13 3 13 12 0 46 11 74 25 29 14 64 27 78 30 14 2 33 14 43 26 9 12 17
16 17 10 0 -7 4 -10 8 -7 5 3 23 -66 41 -152 18 -86 88 -407 156 -712 115
-516 193 -876 198 -909 1 -11 -41 -24 -168 -53 -93 -21 -176 -36 -182 -33 -7
2 -13 17 -13 32 0 60 -95 617 -165 971 l-75 373 -50 60 c-27 33 -50 64 -50 70
0 5 -5 9 -10 9 -6 0 -4 -13 5 -30 8 -16 20 -42 26 -57 l10 -28 -30 29 c-32 31
-91 134 -91 160 0 9 -4 16 -10 16 -5 0 -10 -14 -10 -32 0 -51 -19 -20 -32 53
-15 84 -28 97 -29 28 0 -29 -4 -63 -9 -74 -6 -17 -8 -15 -13 15 -3 19 -12 71
-18 115 l-13 80 -14 -109 c-18 -135 -33 -127 -51 25 -15 119 -34 178 -28 84 8
-109 -7 -106 -37 9 -16 59 -33 109 -38 112 -7 4 -8 -30 -4 -92 5 -92 5 -97 -9
-68 -8 18 -19 69 -24 114 -6 46 -13 85 -16 88 -13 14 -17 -39 -6 -107 14 -92
14 -131 2 -131 -12 0 -14 7 -40 135 -22 104 -22 142 -1 137 6 -1 8 2 5 8 -4 6
-13 9 -21 6 -19 -7 -18 9 3 25 9 8 14 9 10 3 -4 -7 0 -14 8 -18 17 -6 45 2 45
14 0 4 18 15 40 25 22 10 37 22 34 26 -3 5 1 9 8 9 7 0 24 10 38 21 14 11 19
18 12 14 -12 -6 -12 -3 -1 16 7 13 12 27 11 31 -1 4 5 5 13 2 8 -4 15 -9 15
-13z m-263 -161 c1 -13 -4 -20 -15 -20 -15 0 -15 2 -2 10 8 5 11 10 7 10 -5 0
-5 5 -2 10 9 14 11 13 12 -10z m1 -52 c3 -31 -8 -91 -15 -84 -3 3 -9 23 -12
43 -5 28 -3 41 9 50 8 7 15 13 15 13 1 0 2 -10 3 -22z m-80 -33 c-3 -3 -9 2
-12 12 -6 14 -5 15 5 6 7 -7 10 -15 7 -18z m77 -205 c209 -316 348 -621 626
-1373 71 -192 131 -353 134 -358 7 -10 -67 -31 -114 -33 l-34 -1 -198 530
c-109 292 -215 571 -235 620 -74 182 -285 593 -368 718 -19 28 -19 28 3 34 17
4 19 8 9 14 -10 7 -11 9 0 9 7 0 11 4 7 9 -3 5 0 13 6 17 7 4 10 3 7 -2 -3 -5
4 -18 15 -28 17 -16 19 -17 14 -3 -4 9 -10 25 -14 35 -11 31 57 -60 142 -188z
m-578 -92 c-3 -8 -6 -5 -6 6 -1 11 2 17 5 13 3 -3 4 -12 1 -19z m36 -5 c-6 -2
3 -18 19 -35 16 -17 34 -40 39 -50 10 -18 9 -18 -18 -5 -15 9 -39 26 -51 40
-20 21 -22 29 -12 46 6 13 16 19 23 14 7 -4 8 -8 0 -10z m17 -154 c0 -15 -16
-10 -56 20 -56 41 -92 83 -76 88 6 3 9 10 6 15 -4 7 -2 8 4 4 7 -4 12 -2 12 5
0 6 25 -19 55 -56 30 -36 55 -71 55 -76z m-109 -10 c111 -92 148 -128 166
-162 l16 -32 -39 29 c-21 16 -70 54 -107 84 -37 30 -70 52 -73 49 -4 -3 15
-32 40 -65 58 -73 64 -119 8 -54 -21 23 -41 42 -45 42 -12 0 13 -41 49 -82 92
-102 81 -126 -16 -33 -38 38 -70 62 -70 55 0 -7 14 -37 30 -67 17 -29 30 -56
30 -60 0 -4 -13 6 -30 22 -16 16 -30 26 -30 23 0 -3 18 -44 41 -92 22 -48 38
-90 35 -94 -4 -3 -26 14 -51 38 -48 47 -93 125 -120 208 -9 29 -19 51 -22 48
-5 -5 14 -153 24 -184 3 -10 -4 -6 -15 8 -12 14 -27 47 -36 75 -18 62 -29 178
-17 170 5 -3 13 0 17 6 4 8 3 9 -4 5 -11 -6 -16 6 -13 27 2 11 -17 9 -24 -3
-4 -6 -11 -8 -16 -5 -5 4 -9 1 -9 -4 0 -6 5 -11 10 -11 6 0 10 -33 10 -80 0
-47 -4 -80 -10 -80 -5 0 -10 18 -10 39 0 22 -4 43 -10 46 -6 3 -10 -4 -10 -17
0 -45 -17 -52 -24 -10 -7 47 2 82 15 60 7 -10 9 -10 9 3 0 8 -5 20 -11 26 -8
8 -8 13 0 18 6 3 10 3 9 -2 -2 -4 1 -9 7 -10 5 -2 10 5 10 15 0 9 5 17 10 17
6 0 16 4 23 9 8 5 20 2 32 -9 14 -12 20 -13 26 -4 5 8 3 10 -7 5 -8 -5 -8 -2
2 6 9 7 14 19 12 26 -3 7 1 10 11 6 9 -3 26 5 42 20 15 14 31 23 36 20 4 -3 8
0 8 5 0 21 18 11 91 -50z m-20686 -161 l50 -20 -24 26 c-33 35 -20 33 41 -9
35 -23 54 -31 59 -23 5 7 16 4 37 -10 23 -17 55 -24 143 -32 63 -6 120 -11
126 -12 8 -1 10 -10 7 -22 -3 -12 -1 -40 4 -63 9 -41 9 -42 -19 -48 -16 -4
-31 -11 -35 -16 -9 -14 22 -22 44 -10 16 8 21 7 26 -5 3 -8 2 -13 -2 -11 -4 3
-13 -1 -19 -9 -15 -16 -4 -25 25 -19 20 3 22 -3 11 -40 -2 -5 0 -23 4 -40 14
-62 16 -105 5 -105 -6 0 4 -13 22 -30 18 -16 29 -30 22 -30 -6 0 -16 8 -21 18
-6 9 -11 12 -11 6 0 -6 7 -17 15 -24 20 -17 19 -30 -2 -30 -16 -1 -16 -2 -2
-13 10 -7 21 -44 29 -94 8 -48 17 -80 23 -76 6 3 7 1 3 -6 -4 -7 -13 -10 -19
-8 -7 3 -23 -5 -36 -17 -20 -18 -23 -18 -18 -3 8 21 -6 22 -23 1 -8 -8 -22
-20 -33 -26 -17 -9 -19 -8 -13 7 5 15 4 16 -9 5 -19 -16 -19 -7 0 30 25 48 35
80 26 80 -5 0 -25 -31 -44 -68 -21 -40 -43 -69 -52 -69 -9 0 -14 7 -11 16 11
41 16 71 12 71 -2 0 -18 -21 -35 -47 -17 -27 -42 -56 -56 -66 l-25 -18 10 27
c18 47 3 37 -34 -23 -44 -71 -46 -49 -6 53 17 42 29 81 28 86 -3 9 -17 -18
-69 -137 -12 -27 -23 -45 -26 -38 -2 7 1 21 7 32 6 12 8 21 6 21 -3 0 -18 -24
-33 -52 -33 -65 -44 -42 -14 28 34 77 24 74 -14 -4 -19 -40 -36 -72 -39 -72
-7 0 9 51 26 86 22 42 32 78 20 70 -5 -3 -22 -39 -37 -80 -15 -41 -36 -83 -46
-92 -11 -9 -19 -14 -19 -9 0 4 -7 2 -15 -5 -10 -8 -4 13 14 54 17 36 26 66 21
66 -4 0 -34 -36 -65 -81 -57 -81 -84 -103 -44 -35 33 57 17 52 -41 -11 -57
-62 -61 -50 -14 36 27 50 29 55 12 45 -18 -12 26 47 61 80 17 17 31 35 31 41
0 6 14 19 30 29 17 9 28 21 25 26 -8 13 55 57 126 87 47 20 79 43 114 82 56
61 52 60 -54 -16 -79 -55 -101 -61 -60 -16 26 29 7 22 -28 -10 -45 -40 -22 -2
29 50 29 29 49 53 46 53 -4 0 -33 -22 -65 -48 -32 -27 -71 -57 -88 -67 -27
-17 -27 -15 10 24 l40 44 -55 -37 c-30 -20 -59 -36 -65 -36 -5 0 31 41 80 92
50 50 77 81 60 69 -99 -72 -178 -122 -183 -116 -4 4 13 24 37 44 23 20 62 54
85 75 35 33 36 35 6 13 -62 -47 -167 -117 -176 -117 -16 0 44 54 119 107 43
30 77 57 74 59 -7 7 -155 -84 -201 -123 -22 -18 -44 -33 -49 -33 -16 0 20 36
99 97 77 61 93 87 21 36 -23 -17 -64 -40 -91 -52 l-49 -21 19 21 c10 12 35 29
55 39 19 10 41 26 48 34 23 27 -9 19 -59 -14 -40 -27 -153 -70 -183 -70 -18 0
24 37 68 60 l40 21 -38 -5 c-86 -11 18 36 111 50 48 7 40 23 -13 25 -25 1 -23
2 13 10 41 8 170 -2 205 -16 31 -13 18 5 -15 19 -40 18 -12 21 44 6 30 -9 46
-6 100 15 34 14 50 23 33 20 -102 -18 -103 -17 -25 24 41 22 70 40 65 41 -6 0
-53 -9 -105 -20 -129 -29 -153 -22 -70 19 36 17 54 29 40 26 -40 -10 -219 -21
-214 -13 5 8 56 22 117 33 69 11 37 23 -55 19 -93 -4 -93 -4 -53 11 66 26 68
38 5 31 -72 -8 -102 9 -33 19 54 7 94 24 58 25 -11 0 -47 9 -80 20 l-60 21 74
-4 73 -4 -28 23 -29 24 30 -6 c17 -4 53 -16 80 -26z m-3626 -55 c-6 -16 -15
-46 -20 -68 l-8 -40 3 40 c4 41 21 95 31 95 2 0 0 -12 -6 -27z m279 11 c19
-13 59 -74 49 -74 -3 0 -24 7 -47 15 -23 8 -52 15 -64 15 -12 0 -32 7 -45 16
l-24 17 24 13 c33 18 80 17 107 -2z m20493 -121 c-46 -90 -67 -232 -51 -344
15 -107 36 -164 65 -177 25 -12 41 -51 31 -77 -3 -8 -2 -15 3 -15 4 0 24 -17
44 -37 43 -42 87 -129 87 -170 0 -40 39 -114 106 -202 44 -58 55 -78 47 -90
-6 -9 -20 -16 -33 -16 -19 0 -32 18 -78 108 -52 101 -76 135 -51 71 19 -50 16
-192 -6 -259 -27 -83 -96 -155 -149 -155 -41 0 -101 27 -129 58 -28 31 -46 90
-47 155 l0 58 35 -7 c29 -5 35 -3 35 11 0 30 42 114 58 118 10 2 29 0 44 -4
15 -4 49 -9 75 -10 l48 -3 3 51 c3 48 1 52 -27 69 -53 31 -121 142 -121 198 0
17 -7 26 -23 30 -28 7 -49 48 -41 80 4 17 -5 32 -45 69 -109 102 -246 166
-389 183 -34 3 -62 11 -62 15 0 11 11 11 89 -2 145 -23 262 -81 366 -180 80
-77 92 -69 64 41 -30 119 -24 283 16 390 28 78 47 110 53 92 2 -6 -6 -28 -17
-49z m624 23 c40 -22 94 -90 113 -144 9 -25 8 -29 -6 -28 -10 0 -23 7 -30 14
-7 6 -19 12 -26 12 -7 0 -36 11 -64 25 -58 28 -75 30 -121 14 -29 -10 -35 -9
-59 13 -15 14 -42 34 -59 44 -18 10 -33 21 -33 25 0 8 72 37 122 49 47 12 116
1 163 -24z m-21418 -78 c-2 -13 -4 -5 -4 17 -1 22 1 32 4 23 2 -10 2 -28 0
-40z m-124 22 c29 -11 66 -34 82 -50 32 -34 45 -38 45 -14 0 12 5 10 20 -9 11
-14 20 -30 20 -36 0 -5 11 -21 25 -35 14 -14 28 -39 32 -56 5 -26 28 -50 47
-50 3 0 12 16 20 35 12 28 20 35 43 35 16 0 34 5 40 11 7 7 20 2 42 -17 28
-23 32 -32 29 -67 -3 -37 -7 -42 -35 -50 -42 -13 -93 -2 -138 28 l-36 25 30
-44 c35 -51 37 -56 16 -56 -8 0 -24 18 -35 40 -11 22 -21 40 -23 40 -1 0 -1
-24 1 -52 5 -91 -36 -141 -102 -124 -36 9 -66 106 -33 106 7 0 17 13 23 28 10
25 14 27 52 24 38 -4 42 -2 42 18 0 12 -9 29 -19 38 -21 18 -85 132 -74 132
12 0 -41 51 -73 71 -17 10 -58 25 -90 33 -36 9 -49 15 -32 15 15 1 51 -8 81
-19z m-149 -162 c4 -21 1 -37 -8 -47 -16 -18 -16 -16 -16 -73 l-1 -43 -24 28
c-34 39 -34 95 1 136 32 39 40 39 48 -1z m4431 -7 c3 -5 2 -12 -3 -15 -5 -3
-9 1 -9 9 0 17 3 19 12 6z m9 -83 c-9 -14 -23 2 -17 18 4 12 8 13 14 3 4 -7 5
-17 3 -21z m15946 -381 c0 -23 4 -56 9 -74 8 -26 6 -35 -11 -50 -37 -33 -38
-39 -52 -198 -3 -27 -5 -54 -5 -59 -2 -17 -43 29 -72 79 -36 63 -40 146 -9
211 21 42 110 134 130 134 5 0 10 -19 10 -43z m-15880 3 c0 -5 -5 -10 -11 -10
-5 0 -7 5 -4 10 3 6 8 10 11 10 2 0 4 -4 4 -10z m17152 -66 c85 -54 122 -158
83 -233 -56 -109 -292 -87 -431 41 -55 51 -56 65 -3 37 23 -11 45 -17 49 -12
4 4 19 43 35 87 l28 78 73 -6 c49 -5 74 -3 75 4 1 5 3 15 4 20 1 6 3 13 4 16
2 9 44 -7 83 -32z m-5272 -72 c48 -24 72 -70 78 -153 4 -64 3 -69 -15 -69 -17
0 -21 8 -26 58 -2 32 -12 72 -20 89 -35 66 -131 68 -175 3 -23 -34 -23 -37
-20 -281 3 -246 3 -248 27 -273 49 -52 137 -42 168 18 9 17 18 61 21 98 4 60
7 68 25 68 18 0 19 -5 15 -79 -5 -92 -27 -138 -78 -163 -73 -37 -162 -13 -199
52 -20 36 -21 52 -21 291 0 236 1 256 20 287 41 67 127 91 200 54z m-5410 -12
c0 -17 -8 -19 -72 -22 l-73 -3 -3 -327 c-2 -320 -3 -328 -22 -328 -20 0 -20 7
-20 330 l0 330 -70 0 c-63 0 -70 2 -70 20 0 19 7 20 165 20 157 0 165 -1 165
-20z m100 -145 l0 -165 110 0 110 0 0 165 0 165 25 0 25 0 0 -350 0 -350 -25
0 -25 0 0 165 0 166 -107 -3 -108 -3 -3 -162 c-2 -155 -4 -163 -22 -163 -20 0
-20 8 -20 350 0 343 0 350 20 350 19 0 20 -7 20 -165z m390 -185 c0 -343 0
-350 -20 -350 -20 0 -20 7 -20 350 0 343 0 350 20 350 20 0 20 -7 20 -350z
m256 55 l103 -290 0 293 c1 285 1 292 21 292 20 0 20 -7 20 -350 l0 -350 -24
0 c-26 0 -15 -27 -174 425 l-67 190 -3 -307 c-2 -300 -3 -308 -22 -308 -20 0
-20 8 -20 351 l0 350 31 -3 31 -3 104 -290z m264 114 c0 -106 4 -178 9 -175 5
4 57 85 116 181 91 147 111 175 131 175 22 0 16 -13 -73 -157 -53 -87 -96
-163 -96 -169 0 -5 44 -89 98 -185 54 -95 100 -177 102 -181 2 -5 -6 -8 -19
-8 -19 0 -39 27 -116 160 -52 88 -97 160 -101 160 -4 0 -17 -17 -29 -39 -19
-34 -22 -54 -22 -160 0 -114 -1 -121 -20 -121 -20 0 -20 7 -20 350 0 343 0
350 20 350 19 0 20 -7 20 -181z m1160 163 c55 -27 70 -69 70 -192 0 -160 -25
-190 -165 -200 l-80 -5 -3 -142 c-2 -135 -4 -143 -22 -143 -20 0 -20 8 -20
350 l0 350 93 0 c68 0 101 -5 127 -18z m182 -309 l3 -328 108 -3 c99 -2 107
-4 107 -22 0 -19 -7 -20 -130 -20 l-130 0 0 350 c0 343 0 350 20 350 19 0 20
-8 22 -327z m511 305 c17 -66 147 -659 147 -668 0 -5 -9 -10 -20 -10 -20 0
-30 25 -46 113 l-6 38 -112 -3 -111 -3 -16 -70 c-13 -59 -19 -71 -38 -73 -18
-3 -22 0 -18 15 8 25 147 667 147 676 0 4 15 7 34 7 27 0 35 -5 39 -22z m383
-273 l103 -290 0 293 c1 285 1 292 21 292 20 0 20 -7 20 -350 l0 -350 -24 0
c-26 0 -15 -27 -174 425 l-67 190 -3 -307 c-2 -300 -3 -308 -22 -308 -20 0
-20 8 -20 351 l0 350 31 -3 31 -3 104 -290z m1064 275 c0 -18 -8 -20 -112 -22
l-113 -3 0 -140 0 -140 93 -3 c84 -2 92 -4 92 -22 0 -19 -7 -20 -95 -20 l-96
0 3 -142 3 -143 113 -3 c104 -2 112 -4 112 -22 0 -19 -7 -20 -135 -20 l-135 0
0 350 0 350 135 0 c128 0 135 -1 135 -20z m203 -127 c34 -79 64 -143 68 -143
3 0 34 65 69 145 48 110 68 145 82 145 10 0 18 -4 18 -8 0 -5 -31 -81 -70
-169 l-70 -160 75 -173 c41 -96 75 -178 75 -183 0 -4 -10 -7 -22 -5 -18 2 -34
31 -88 155 -36 84 -68 154 -71 157 -3 3 -37 -66 -75 -154 -59 -138 -72 -160
-91 -160 l-22 0 29 68 c16 37 51 118 78 181 l50 114 -33 76 c-18 42 -51 118
-73 169 l-41 93 25 -3 c23 -3 33 -20 87 -145z m597 127 c0 -18 -8 -20 -112
-22 l-113 -3 0 -140 0 -140 93 -3 c84 -2 92 -4 92 -22 0 -19 -7 -20 -95 -20
l-96 0 3 -142 3 -143 113 -3 c104 -2 112 -4 112 -22 0 -19 -7 -20 -135 -20
l-135 0 0 350 0 350 135 0 c128 0 135 -1 135 -20z m492 -272 c3 -253 5 -297
20 -324 35 -63 129 -69 172 -11 20 27 21 42 24 328 3 291 4 299 23 299 20 0
20 -6 17 -302 -3 -283 -4 -305 -23 -338 -12 -19 -36 -43 -55 -52 -71 -36 -157
-13 -195 52 -19 33 -20 55 -23 338 -3 296 -3 302 17 302 19 0 20 -8 23 -292z
m648 272 c0 -17 -8 -19 -72 -22 l-73 -3 -3 -327 c-2 -320 -3 -328 -22 -328
-20 0 -20 7 -20 330 l0 330 -70 0 c-63 0 -70 2 -70 20 0 19 7 20 165 20 157 0
165 -1 165 -20z m320 0 c0 -18 -8 -20 -112 -22 l-113 -3 0 -140 0 -140 93 -3
c84 -2 92 -4 92 -22 0 -19 -7 -20 -95 -20 l-96 0 3 -142 3 -143 113 -3 c104
-2 112 -4 112 -22 0 -19 -7 -20 -135 -20 l-135 0 0 350 0 350 135 0 c128 0
135 -1 135 -20z m-4903 -282 c46 -43 16 -118 -47 -118 -64 0 -91 70 -45 115
30 31 62 32 92 3z m2100 0 c46 -43 16 -118 -47 -118 -64 0 -91 70 -45 115 30
31 62 32 92 3z m-10120 -233 c0 -8 -3 -13 -5 -10 -3 3 -11 -4 -19 -15 -8 -11
-19 -20 -24 -20 -6 0 2 14 18 30 33 35 30 34 30 15z"/>
<path d="M15207 5375 c-79 -27 -113 -92 -105 -202 13 -169 145 -303 321 -326
l47 -7 0 134 c0 305 -100 457 -263 401z"/>
<path d="M19908 4216 c-93 -38 -185 -122 -257 -235 -58 -91 -82 -163 -83 -247
-2 -90 20 -133 77 -153 61 -21 115 -2 181 63 78 79 115 161 168 380 25 104 46
194 46 202 0 22 -67 17 -132 -10z"/>
<path d="M18135 4220 c-132 -21 -209 -141 -290 -453 -19 -72 -32 -134 -28
-140 13 -20 110 -57 153 -57 88 0 192 74 259 183 l23 37 -35 39 c-66 73 -58
168 19 251 44 48 45 49 30 77 -27 53 -68 73 -131 63z"/>
<path d="M16944 4196 c-116 -51 -224 -282 -211 -454 6 -83 27 -126 77 -159 97
-66 227 7 300 170 27 59 25 84 -7 101 -37 19 -79 65 -86 96 -10 39 12 106 49
149 34 39 34 41 20 75 -14 34 -17 36 -63 36 -26 -1 -62 -7 -79 -14z"/>
<path d="M27540 4105 c-8 -9 -8 -15 -2 -15 12 0 26 19 19 26 -2 2 -10 -2 -17
-11z"/>
<path d="M27576 4087 c3 -10 9 -15 12 -12 3 3 0 11 -7 18 -10 9 -11 8 -5 -6z"/>
<path d="M7117 3743 c-10 -9 -9 -23 1 -23 5 0 17 7 28 15 19 14 19 14 -2 15
-11 0 -24 -3 -27 -7z"/>
<path d="M7188 3713 c-21 -9 -38 -20 -38 -24 0 -13 11 -10 60 16 50 27 36 32
-22 8z"/>
<path d="M7080 3537 l-74 -21 37 -16 c34 -15 43 -15 95 -2 62 15 99 38 47 29
-16 -3 -50 -8 -75 -11 l-45 -5 50 15 c28 8 61 19 75 24 54 18 -34 8 -110 -13z"/>
<path d="M7120 3475 c0 -2 18 -14 41 -25 37 -19 43 -20 58 -6 9 8 28 19 41 25
20 8 7 10 -57 10 -46 1 -83 -1 -83 -4z"/>
<path d="M7248 3413 c7 -3 16 -2 19 1 4 3 -2 6 -13 5 -11 0 -14 -3 -6 -6z"/>
<path d="M7315 3397 c-16 -13 -16 -14 -1 -20 10 -4 19 -1 23 9 8 21 -1 26 -22
11z"/>
<path d="M7113 3263 c-13 -8 -23 -19 -23 -23 0 -15 36 1 48 21 15 23 5 24 -25
2z"/>
<path d="M15917 2823 c-4 -3 -7 -78 -7 -165 l0 -158 64 0 c120 0 146 28 146
158 0 97 -13 138 -51 157 -28 15 -140 21 -152 8z"/>
<path d="M16725 2733 c-9 -43 -31 -144 -49 -225 l-33 -148 103 0 102 0 -14 63
c-8 34 -31 134 -51 222 -19 88 -36 161 -38 163 -1 2 -10 -32 -20 -75z"/>
<path d="M7361 2935 c-1 -5 -6 -41 -11 -79 -6 -38 -13 -80 -17 -94 -3 -15 -2
-23 4 -19 13 8 36 135 31 172 -3 17 -6 26 -7 20z"/>
<path d="M6713 970 c0 -25 2 -35 4 -22 2 12 2 32 0 45 -2 12 -4 2 -4 -23z"/>
</g>
</svg>
